<svg width="100" height="100" viewBox="0 0 100 100" fill="none" xmlns="http://www.w3.org/2000/svg">
    <rect width="100" height="100" rx="16" fill="#050505" />
    <path
        d="M43.435 27.4915C45.6902 21.3972 54.3099 21.3972 56.565 27.4915L59.7541 36.1101C60.4631 38.0262 61.9738 39.5368 63.8898 40.2458L72.5085 43.435C78.6028 45.6901 78.6028 54.3099 72.5085 56.565L63.8898 59.7541C61.9738 60.4631 60.4631 61.9738 59.7541 63.8899L56.565 72.5085C54.3099 78.6028 45.6902 78.6028 43.435 72.5085L40.2458 63.8898C39.5368 61.9738 38.0261 60.4631 36.1101 59.7541L27.4915 56.565C21.3972 54.3099 21.3972 45.6902 27.4915 43.435L36.1101 40.2458C38.0261 39.5368 39.5368 38.0262 40.2458 36.1102L43.435 27.4915Z"
        fill="white" />
</svg>