<svg width="1824" height="456" viewBox="0 0 1824 456" fill="none" xmlns="http://www.w3.org/2000/svg">
    <g clip-path="url(#clip0_651_5260)">
        <mask id="mask0_651_5260" style="mask-type:luminance" maskUnits="userSpaceOnUse" x="-396"
            y="-450" width="2616" height="1424">
            <path d="M-395.721 -449.532H2219.72V973.449H-395.721V-449.532Z" fill="white" />
        </mask>
        <g mask="url(#mask0_651_5260)">
            <path
                d="M1673.46 339.576L1610.37 449.531H1534.78L1633.48 280.069L1538.53 124.188H1622.23L1682.2 222.504L1735.92 124.188H1810.26L1721.56 282.011L1824 449.531H1740.3L1673.46 339.576ZM1338.64 257.429H1442.33V250.966C1442.33 210.213 1431.09 178.519 1394.23 178.519C1358.63 178.519 1340.51 205.686 1338.64 257.429ZM1410.48 456C1315.53 456 1261.81 401.023 1261.81 287.83C1261.81 189.517 1304.91 117.719 1395.48 117.719C1469.82 117.719 1517.92 160.408 1517.92 273.601V314.351H1338.64C1341.77 368.682 1362.38 395.2 1416.72 395.2C1452.95 395.2 1491.68 380.97 1514.79 364.802V427.543C1492.93 443.063 1457.95 456 1410.48 456ZM1016.32 289.128C1016.32 362.86 1036.31 395.2 1076.91 395.2C1118.76 395.2 1140 362.214 1140 286.538C1140 211.508 1120.01 178.519 1080.03 178.519C1037.55 178.519 1016.32 212.154 1016.32 289.126M939.484 289.126C939.484 180.461 989.458 117.719 1061.29 117.719C1093.77 117.719 1121.26 133.244 1140 162.35V0H1214.33V449.531H1145.62L1141.87 407.494C1121.88 439.185 1093.15 456 1058.17 456C988.205 456 939.484 396.496 939.484 289.126ZM714.609 449.531H640.273V124.188H712.734L714.609 151.355H718.354C733.348 135.832 759.581 119.014 803.931 119.014C864.523 119.014 889.508 147.474 889.508 212.154V449.531H815.178V219.916C815.178 195.339 803.309 183.695 777.071 183.695C750.21 183.695 728.35 198.571 714.609 216.038V449.531ZM505.347 297.533H494.729C431.011 297.533 405.404 311.117 405.404 349.276C405.404 378.388 421.018 397.788 452.251 397.788C478.484 397.788 495.976 386.144 505.345 371.917L505.347 297.533ZM579.678 369.975C579.678 396.496 580.931 423.016 583.429 449.531H510.968C508.47 443.063 505.973 432.07 505.345 423.663H502.225C487.855 439.185 469.113 454.061 425.391 454.061C367.922 454.061 329.195 417.194 329.195 351.221C329.195 285.242 379.791 246.436 493.479 246.436H505.347V228.323C505.347 193.395 489.106 180.461 453.502 180.461C415.395 180.461 371.672 197.278 351.68 212.803V148.769C374.17 135.183 412.897 119.014 462.245 119.014C540.954 119.014 579.678 148.767 579.678 227.677V369.975Z"
                fill="#111111" />
            <path
                d="M146.169 449.531V404.257C146.169 342.811 139.298 312.415 115.561 259.373L0 0.00542824H79.954L178.028 221.857C206.761 286.543 219.255 320.173 219.255 394.557V449.534L146.169 449.531ZM193.019 217.328L284.22 0H361.051L268.6 217.33L193.019 217.328Z"
                fill="#111111" />
        </g>
    </g>
    <defs>
        <clipPath id="clip0_651_5260">
            <rect width="1824" height="456" fill="white" />
        </clipPath>
    </defs>
</svg>