<svg width="24" height="16" viewBox="0 0 24 16" fill="none" xmlns="http://www.w3.org/2000/svg">
    <g id="flags">
        <rect id="Mask" width="24" height="16" rx="2" fill="white" />
        <mask id="mask0_1355_37" style="mask-type:luminance" maskUnits="userSpaceOnUse" x="0" y="0"
            width="24" height="16">
            <rect id="Mask_2" width="24" height="16" rx="2" fill="white" />
        </mask>
        <g mask="url(#mask0_1355_37)">
            <rect id="Mask Copy" width="24" height="16" fill="#0A17A7" />
            <path id="Rectangle 2" fill-rule="evenodd" clip-rule="evenodd"
                d="M-1.09929 -1.5332L9.14283 4.91463V-1.06671H14.8571V4.91463L25.0992 -1.5332L26.3774 0.23541L18.2796 5.33329H24V10.6666H18.2796L26.3774 15.7645L25.0992 17.5331L14.8571 11.0853V17.0666H9.14283V11.0853L-1.09929 17.5331L-2.37744 15.7645L5.72032 10.6666H-2.69413e-05V5.33329H5.72032L-2.37744 0.23541L-1.09929 -1.5332Z"
                fill="white" />
            <path id="Line" d="M16.0011 5.06566L26.8571 -1.6001" stroke="#DB1F35"
                stroke-width="0.666667" stroke-linecap="round" />
            <path id="Line Copy 2" d="M17.1538 10.9581L26.8857 17.0803" stroke="#DB1F35"
                stroke-width="0.666667" stroke-linecap="round" />
            <path id="Line Copy" d="M6.86191 5.04849L-3.28925 -1.33667" stroke="#DB1F35"
                stroke-width="0.666667" stroke-linecap="round" />
            <path id="Line Copy 3" d="M7.96292 10.8839L-3.28925 17.8484" stroke="#DB1F35"
                stroke-width="0.666667" stroke-linecap="round" />
            <path id="Rectangle 2 Copy 3" fill-rule="evenodd" clip-rule="evenodd"
                d="M0 9.6H10.2857V16H13.7143V9.6H24V6.4H13.7143V0H10.2857V6.4H0V9.6Z" fill="#E6273E" />
        </g>
    </g>
</svg>