<svg width="118" height="84" viewBox="0 0 118 84" fill="none" xmlns="http://www.w3.org/2000/svg">
    <path id="Heavy Waves"
        d="M115.926 18.2583C110.381 21.4594 97.3813 -1.05723 91.8368 2.14389C86.2922 5.34502 99.2922 27.8617 93.7477 31.0628C88.2032 34.2639 75.2032 11.7473 69.6717 14.9409C64.127 18.1421 77.127 40.6588 71.5957 43.8523C66.051 47.0535 53.051 24.5368 47.5197 27.7304C41.975 30.9316 54.975 53.4482 49.4308 56.6492C43.8862 59.8504 30.8862 37.3337 25.3415 40.5349C19.7973 43.7359 32.7973 66.2525 27.2527 69.4537C21.708 72.6549 8.70804 50.1383 3.1634 53.3395C-2.38082 56.5404 10.6192 79.0571 5.07453 82.2583"
        stroke="#17171C" stroke-width="3" stroke-miterlimit="10" stroke-linecap="round" />
</svg>