<svg width="97" height="98" viewBox="0 0 97 98" fill="none" xmlns="http://www.w3.org/2000/svg">
    <g id="hero-section_1st-row_smile">
        <path id="Smile" fill-rule="evenodd" clip-rule="evenodd"
            d="M94.8646 36.5766C101.726 62.1832 86.53 88.5032 60.9235 95.3644C35.3171 102.226 8.99697 87.0298 2.13572 61.4233C-4.72549 35.8169 10.4705 9.49673 36.0768 2.63552C61.6834 -4.22573 88.0034 10.9703 94.8646 36.5766ZM34.0199 44.4138C38.3822 43.245 40.9712 38.7607 39.8023 34.398C38.6334 30.0357 34.1491 27.4466 29.7868 28.6154C25.424 29.7844 22.835 34.2688 24.0039 38.6311C25.1729 42.9938 29.6572 45.5828 34.0199 44.4138ZM58.7474 37.7882C63.1101 36.6192 65.6991 32.1349 64.5301 27.7722C63.3612 23.4099 58.8769 20.8208 54.5142 21.9897C50.1519 23.1586 47.5629 27.643 48.7318 32.0053C49.9007 36.368 54.385 38.957 58.7474 37.7882ZM53.1687 65.0497C42.547 67.8957 31.6289 61.5922 28.7828 50.9705L20.5402 53.1791C24.606 68.353 40.2034 77.3582 55.3773 73.2924C70.5517 69.2265 79.5565 53.6291 75.4906 38.4552L67.2479 40.6638C70.094 51.2855 63.7908 62.2035 53.1687 65.0497Z"
            fill="#6053F8" />
    </g>
</svg>