<svg width="32" height="32" viewBox="0 0 32 32" fill="none"
	xmlns="http://www.w3.org/2000/svg">
	<g id="Logo">
		<path id="Vector" d="M12.2486 3.13798C13.5372 -0.344481 18.4628 -0.344474 19.7514 3.138L21.5738 8.06294C21.9789 9.15781 22.8422 10.0211 23.9371 10.4262L28.862 12.2486C32.3445 13.5372 32.3445 18.4628 28.862 19.7514L23.9371 21.5738C22.8422 21.9789 21.9789 22.8422 21.5738 23.9371L19.7514 28.862C18.4628 32.3445 13.5372 32.3445 12.2486 28.862L10.4262 23.937C10.021 22.8422 9.15779 21.9789 8.06292 21.5738L3.13799 19.7514C-0.344478 18.4628 -0.344478 13.5372 3.13799 12.2486L8.06293 10.4262C9.1578 10.0211 10.021 9.15782 10.4262 8.06295L12.2486 3.13798Z" fill="white"/>
	</g>
</svg>
