<svg width="132" height="125" viewBox="0 0 132 125" fill="none" xmlns="http://www.w3.org/2000/svg">
    <path
        d="M69.6969 58.7287C71.075 58.6062 71.8296 61.172 69.6969 62.502C67.8131 63.9395 63.4384 62.8826 62.1754 58.7288C60.6802 54.8164 63.5504 48.6257 69.6969 47.409C75.6071 45.8588 83.5803 50.54 84.7411 58.7287C86.3385 66.6631 79.8693 76.4951 69.6969 77.595C59.7728 79.2621 48.1775 70.9394 47.1313 58.7288C45.4193 46.7549 55.5081 33.3125 69.6969 32.3161C83.6376 30.543 98.8536 42.4785 99.7847 58.7287C101.611 74.739 87.9003 91.8037 69.6969 92.6878C51.7305 94.5708 32.9138 79.0154 32.0876 58.7288C30.1582 38.6981 47.4678 17.9894 69.6969 17.2231C91.6778 15.2251 114.117 34.4144 114.828 58.7287C116.873 82.7985 95.9426 107.12 69.6969 107.781C43.7001 109.882 17.6431 87.0816 17.0438 58.7288C14.8851 30.6293 39.4375 2.67621 69.6969 2.13015C99.7201 -0.0881847 129.378 26.3483 129.872 58.7287C132.136 90.8551 103.982 122.442 69.6969 122.874C35.6599 125.198 2.37966 95.1434 2 58.7288"
        stroke="#17171C" stroke-width="3" stroke-linecap="round" />
</svg>