<svg width="127" height="156" viewBox="0 0 127 156" fill="none" xmlns="http://www.w3.org/2000/svg">
    <path id="Spiral 3"
        d="M115.648 14.9998C92.6597 1.72731 70.0197 -2.09648 65.0802 6.45898C60.1407 15.0144 74.7721 32.7094 97.7607 45.9819C110.644 53.4201 122.783 56.5141 124.874 52.8925C126.965 49.2708 118.216 40.305 105.333 32.8667C82.3442 19.5943 59.7042 15.7705 54.7647 24.3259C49.8252 32.8815 64.4565 50.5766 87.4451 63.8491C100.329 71.2873 112.468 74.3812 114.559 70.7595C116.65 67.1378 107.901 58.1719 95.0173 50.7337C72.0287 37.4612 49.3641 33.6801 44.3943 42.2879C39.4246 50.8958 54.0313 68.6336 77.0199 81.906C89.9033 89.3443 102.043 92.4382 104.134 88.8164C106.225 85.1947 97.4753 76.2292 84.5919 68.791C61.6033 55.5185 38.9635 51.6945 34.0239 60.25C29.0844 68.8055 43.716 86.5001 66.7047 99.7726C79.5881 107.211 91.727 110.305 93.818 106.684C95.9091 103.062 87.16 94.0958 74.2766 86.6576C51.288 73.3851 28.6479 69.5616 23.7083 78.1171C18.7688 86.6726 33.4005 104.367 56.3891 117.64C69.2725 125.078 81.4117 128.172 83.5024 124.551C85.5935 120.929 76.8444 111.963 63.961 104.525C40.9724 91.2522 18.3323 87.4287 13.3931 95.9837C8.45353 104.539 23.0849 122.234 46.0735 135.507C58.9569 142.945 71.0961 146.039 73.1872 142.417C75.2779 138.796 66.5288 129.83 53.6454 122.392C30.6568 109.119 7.99243 105.338 3.02267 113.946C-1.9471 122.554 12.6597 140.291 35.6483 153.564"
        stroke="#17171C" stroke-width="3" stroke-linecap="round" />
</svg>