<svg width="128" height="128" viewBox="0 0 128 128" fill="none" xmlns="http://www.w3.org/2000/svg">
    <path id="Transparency" fill-rule="evenodd" clip-rule="evenodd"
        d="M105.732 0H99.0675L128 28.9327V22.2676L105.732 0ZM128 6.17711L121.823 0H128V6.17711ZM128 45.023L82.9764 0H76.3119L128 51.6881V45.023ZM128 67.7786L60.2209 0H53.5563L128 74.4437V67.7786ZM128 90.5341L37.4653 0H30.8006L128 97.1992V90.5341ZM128 113.29L14.71 0H8.045L128 119.955V113.29ZM119.954 128L0 8.0454V14.7104L113.29 128H119.954ZM97.1986 128L0 30.801V37.4659L90.5341 128H97.1986ZM74.4431 128L0 53.5563V60.2214L67.7786 128H74.4431ZM51.6875 128L0 76.3119V82.977L45.023 128H51.6875ZM28.9322 128L0 99.0675V105.733L22.2672 128H28.9322ZM6.17665 128L0 121.823V128H6.17665Z"
        fill="#17171C" />
</svg>