<svg width="1824" height="687" viewBox="0 0 1824 687" fill="none" xmlns="http://www.w3.org/2000/svg">
    <path fill-rule="evenodd" clip-rule="evenodd"
        d="M1790.88 418.889C1798.19 360.445 1767.66 325.656 1737.87 293.571C1712.95 266.728 1683.95 241.789 1655.42 230.913C1693.93 268.843 1734.64 329.433 1733.94 401.487C1733.41 457.318 1702.94 499.931 1676.99 533.768C1726.19 505.52 1783.25 479.871 1790.88 418.889ZM51.3591 344.04C50.422 371.714 70.8861 402.862 86.7157 418.889C131.546 464.327 209.45 501.276 281.083 528.542C357.266 557.56 432.954 579.403 522.564 596.427C699.023 629.962 898.229 650.476 1111.56 641.669C1237.81 636.457 1356.77 625.4 1464.96 596.427C1566.53 569.237 1666.12 525.898 1692.7 439.765C1726.94 328.934 1635.69 239.629 1570.99 199.583C1407.84 98.6164 1174.28 78.4653 925.049 53.3746C661.673 26.864 410.718 51.8187 228.057 128.224C138.26 165.777 46.2468 208.662 33.6888 316.2C58.8389 283.964 99.3929 250.293 139.708 225.686C114.166 267.574 53.3528 285.686 51.3591 344.04ZM985.913 685.189C778.801 693.92 559.403 663.331 396.916 620.793C280.35 590.279 150.306 545.067 78.843 462.409C38.6132 415.838 -24.7896 349.387 10.124 263.979C60.6285 140.444 270.791 71.8641 434.215 41.1994C479.045 32.7704 525 30.595 569.677 22.0452C613.383 13.6766 654.618 3.58595 701.221 1.15392C797.016 -3.83099 895.367 8.22345 987.873 20.293C1251.04 54.6435 1520.84 102.408 1696.64 223.934C1764.42 270.822 1864.66 362.877 1806.59 467.62C1773.78 526.789 1713.83 551.079 1659.32 573.798C1473.66 651.185 1252.17 674.373 989.832 685.189C988.537 685.249 987.208 685.143 985.913 685.189Z"
        fill="#111111" />
    <path
        d="M317.6 156.722C339.152 156.722 356.411 161.395 369.378 170.743C382.519 180.091 389.09 193.853 389.09 212.029C389.09 230.551 382.607 244.486 369.641 253.834C356.674 263.008 339.327 267.595 317.6 267.595H192.23V85.8352H369.903V117.254H233.231V156.722H317.6ZM314.446 236.177C325.31 236.177 333.633 234.1 339.415 229.945C345.197 225.617 348.088 219.559 348.088 211.769C348.088 204.152 345.197 198.267 339.415 194.112C333.633 189.785 325.31 187.621 314.446 187.621H233.231V236.177H314.446Z"
        fill="#111111" />
    <path
        d="M525.218 128.419C549.223 128.419 568.673 134.824 583.567 147.634C598.636 160.27 606.17 177.581 606.17 199.565C606.17 221.549 598.723 238.946 583.829 251.756C568.936 264.393 549.574 270.711 525.744 270.711C496.657 270.711 475.455 261.969 462.139 244.486V319.527H422.977V131.535H458.985V158.799C471.425 138.546 493.503 128.419 525.218 128.419ZM474.755 229.945C484.392 237.562 497.446 241.37 513.916 241.37C530.387 241.37 543.441 237.562 553.078 229.945C562.715 222.328 567.534 212.202 567.534 199.565C567.534 186.928 562.715 176.802 553.078 169.185C543.441 161.569 530.387 157.76 513.916 157.76C497.446 157.76 484.392 161.569 474.755 169.185C465.117 176.802 460.299 186.928 460.299 199.565C460.299 212.202 465.117 222.328 474.755 229.945Z"
        fill="#111111" />
    <path
        d="M722.528 128.419C776.496 128.765 803.48 149.365 803.48 190.217V267.595H767.209V238.773C752.841 260.065 728.836 270.711 695.194 270.711C674.518 270.711 658.835 266.989 648.147 259.546C637.634 251.929 632.377 242.062 632.377 229.945C632.377 216.443 638.773 206.489 651.564 200.084C664.53 193.506 683.98 189.438 709.912 187.881L764.318 184.505V182.168C764.318 173.859 760.814 167.281 753.805 162.434C746.971 157.414 736.546 154.904 722.528 154.904C698.348 154.904 683.98 161.136 679.424 173.599H642.628C644.029 162.694 648.673 153.779 656.558 146.855C664.443 139.93 673.904 135.084 684.943 132.314C695.982 129.544 708.51 128.246 722.528 128.419ZM705.707 244.226C723.404 244.226 737.597 241.024 748.286 234.619C758.974 228.041 764.318 220.165 764.318 210.99V206.316L714.906 209.692C700.188 210.557 689.236 212.461 682.052 215.404C674.868 218.174 671.276 222.328 671.276 227.868C671.276 232.888 674.167 236.869 679.949 239.812C685.732 242.755 694.318 244.226 705.707 244.226Z"
        fill="#111111" />
    <path d="M827.96 163.473V131.535H996.172V163.473H931.516V267.595H892.354V163.473H827.96Z"
        fill="#111111" />
    <path
        d="M1119.83 177.235C1165.91 177.235 1188.95 192.295 1188.95 222.415C1188.95 252.535 1165.91 267.595 1119.83 267.595H1026.52V131.535H1065.68V177.235H1119.83ZM1116.94 239.812C1138.84 239.812 1149.79 233.926 1149.79 222.155C1149.79 210.211 1138.84 204.239 1116.94 204.239H1065.68V239.812H1116.94Z"
        fill="#111111" />
    <path
        d="M1374.56 131.535V267.595H1335.4V219.559H1294.4L1252.35 267.595H1204.51L1254.45 217.741C1225.71 212.721 1211.34 198.7 1211.34 175.677C1211.34 146.249 1234.39 131.535 1280.47 131.535H1374.56ZM1283.36 195.151H1335.4V159.318H1283.36C1261.28 159.318 1250.24 165.29 1250.24 177.235C1250.24 189.179 1261.28 195.151 1283.36 195.151Z"
        fill="#111111" />
    <path
        d="M314.604 476.731H246.268V490.233H324.854V513.083H246.268V545.8H206.58V513.083H182.4V490.233H206.58V476.731H182.4V447.909H206.58V367.155H314.604C336.857 367.155 354.291 371.829 366.907 381.177C379.698 390.351 386.094 404.2 386.094 422.722C386.094 458.728 362.264 476.731 314.604 476.731ZM246.268 399.353V447.909H312.501C323.365 447.909 331.776 445.658 337.733 441.158C343.691 436.484 346.669 430.339 346.669 422.722C346.669 415.279 343.691 409.566 337.733 405.585C331.951 401.43 323.54 399.353 312.501 399.353H246.268Z"
        fill="#111111" />
    <path
        d="M557.131 409.739H599.184L532.425 555.667C524.715 573.15 515.867 585.008 505.879 591.24C496.067 597.645 481.173 600.847 461.198 600.847C454.364 600.847 446.567 600.414 437.806 599.549V569.948C444.99 570.467 451.911 570.727 458.57 570.727C468.908 570.727 476.705 569.428 481.961 566.832C487.218 564.235 491.599 559.215 495.103 551.772L497.731 545.8H480.91L407.055 409.739H450.159L510.347 529.441L557.131 409.739Z"
        fill="#111111" />
    <path
        d="M723.918 414.932C749.675 414.932 770.527 421.078 786.472 433.368C802.417 445.658 810.389 461.844 810.389 481.924C810.389 502.35 801.979 518.622 785.158 530.74C768.336 542.857 745.383 548.915 716.296 548.915C687.56 548.915 664.693 541.818 647.697 527.624C630.876 513.429 622.465 490.666 622.465 459.334C622.465 430.945 628.335 409.22 640.075 394.16C651.99 379.1 671.439 369.146 698.423 364.299C707.71 362.568 724.882 360.491 749.938 358.067C769.037 355.99 759.193 353.826 767.429 351.576L790.94 381.696C782.88 385.158 770.702 387.582 754.406 388.967C750.551 389.313 746.784 389.659 743.105 390.005C739.425 390.178 735.22 390.438 730.489 390.784C725.758 391.13 721.64 391.39 718.136 391.563C708.148 392.429 700 393.727 693.692 395.458C687.384 397.016 681.076 399.786 674.769 403.767C668.461 407.748 663.467 413.634 659.787 421.424C656.283 429.04 653.742 438.821 652.165 450.765C657.772 439.513 666.708 430.771 678.974 424.54C691.239 418.135 706.221 414.932 723.918 414.932ZM716.296 519.574C733.643 519.574 747.222 516.199 757.035 509.448C766.847 502.696 771.753 493.522 771.753 481.924C771.753 470.326 766.847 461.151 757.035 454.4C747.222 447.649 733.643 444.274 716.296 444.274C699.124 444.274 685.632 447.649 675.82 454.4C666.183 461.151 661.364 470.326 661.364 481.924C661.364 493.522 666.183 502.696 675.82 509.448C685.632 516.199 699.124 519.574 716.296 519.574Z"
        fill="#111111" />
    <path
        d="M866.902 409.739H1008.31V545.8H969.406V441.677H900.807C897.829 475.086 895.726 494.993 894.499 501.398C890.82 521.651 883.723 534.981 873.21 541.385C866.376 545.54 857.353 547.617 846.138 547.617C840.006 547.617 834.048 547.271 828.266 546.579V514.9C832.471 515.247 835.45 515.42 837.202 515.42C841.232 515.42 844.561 514.814 847.19 513.602C849.993 512.39 852.359 510.313 854.286 507.37C856.214 504.254 857.791 500.446 859.017 495.945C860.244 491.445 861.207 485.732 861.908 478.808C862.784 471.711 863.485 463.834 864.011 455.179C864.712 446.524 865.413 436.224 866.114 424.28C866.464 417.875 866.727 413.028 866.902 409.739Z"
        fill="#111111" />
    <path
        d="M1227.06 485.04V489.194H1083.03C1087.94 511.352 1106.86 522.43 1139.8 522.43C1162.06 522.43 1177.48 517.324 1186.06 507.111L1224.17 508.669C1219.09 521.478 1209.37 531.432 1195 538.529C1180.63 545.453 1162.23 548.915 1139.8 548.915C1110.02 548.915 1086.45 543.03 1069.1 531.259C1051.93 519.488 1043.35 501.658 1043.35 477.769C1043.35 454.227 1051.84 436.484 1068.84 424.54C1086.01 412.595 1108.88 406.623 1137.44 406.623C1197.19 406.623 1227.06 432.762 1227.06 485.04ZM1137.44 433.108C1106.25 433.108 1088.2 443.927 1083.3 465.565H1188.43C1187.55 455.525 1182.65 447.649 1173.71 441.937C1164.95 436.051 1152.86 433.108 1137.44 433.108Z"
        fill="#111111" />
    <path
        d="M1380.62 474.913C1396.22 476.471 1407.87 479.847 1415.58 485.04C1423.47 490.06 1427.41 497.676 1427.41 507.89C1427.41 512.563 1426.53 516.978 1424.78 521.132C1423.03 525.114 1419.96 529.095 1415.58 533.076C1411.2 537.058 1404.54 540.174 1395.6 542.424C1386.84 544.674 1376.07 545.8 1363.28 545.8H1261.56V409.739H1358.81C1380.71 409.739 1396.57 412.942 1406.38 419.346C1416.19 425.578 1421.1 433.801 1421.1 444.014C1421.1 460.978 1407.61 471.278 1380.62 474.913ZM1300.72 436.743V464.787H1354.08C1372.65 464.787 1381.94 460.113 1381.94 450.765C1381.94 441.417 1371.95 436.743 1351.98 436.743H1300.72ZM1357.76 518.795C1378.08 518.795 1388.25 513.689 1388.25 503.475C1388.25 498.455 1385.79 494.647 1380.89 492.051C1375.98 489.454 1367.66 488.156 1355.92 488.156H1300.72V518.795H1357.76Z"
        fill="#111111" />
    <path
        d="M1550.47 455.439C1596.38 455.439 1619.34 470.499 1619.34 500.619C1619.34 530.74 1596.38 545.8 1550.47 545.8H1461.37V409.739H1500.54V455.439H1550.47ZM1645.36 409.739H1684.52V545.8H1645.36V409.739ZM1547.32 518.016C1569.4 518.016 1580.44 512.131 1580.44 500.36C1580.44 488.415 1569.4 482.443 1547.32 482.443H1500.54V518.016H1547.32Z"
        fill="#111111" />
</svg>