<svg width="1824" height="333" viewBox="0 0 1824 333" fill="none" xmlns="http://www.w3.org/2000/svg">
    <path
        d="M238.823 0C289.731 0 328.681 9.49456 355.672 28.4837C383.005 47.4728 396.672 73.7123 396.672 107.202C396.672 139.311 382.663 165.896 354.647 186.956C326.972 208.017 288.364 218.547 238.823 218.547H71.7494V333H0V0H238.823ZM71.7494 55.4137V163.652H238.823C266.498 163.652 287.852 158.645 302.885 148.633C317.918 138.275 325.435 124.465 325.435 107.202C325.435 72.6765 296.564 55.4137 238.823 55.4137H71.7494Z"
        fill="#111111" />
    <path
        d="M467.619 0H847.891V55.4137H539.368V138.793H826.878V194.207H539.368V277.586H853.016V333H467.619V0Z"
        fill="#111111" />
    <path
        d="M927.23 0H1307.5V55.4137H927.23V138.793H1049.76V194.207H927.23V277.586H1220.59V333H927.23V0Z"
        fill="#111111" />
    <path
        d="M1386.84 333V0H1458.59V165.723L1702.54 0H1797.86L1592.86 141.383L1824 333H1728.68L1541.61 177.117L1458.59 234.602V333H1386.84Z"
        fill="#111111" />
</svg>